<?xml version="1.0" encoding="utf-8"?>
<!-- Generator: Adobe Illustrator 24.2.1, SVG Export Plug-In . SVG Version: 6.00 Build 0)  -->
<svg version="1.1" id="Calque_1" xmlns="http://www.w3.org/2000/svg" xmlns:xlink="http://www.w3.org/1999/xlink" x="0px" y="0px"
	 viewBox="0 0 595.28 285.08" style="enable-background:new 0 0 595.28 285.08;" xml:space="preserve">
<style type="text/css">
	.st0{fill:#557FBF;}
</style>
<g>
	<g>
		<path class="st0" d="M104.36,70.4c-39.77,0-72.12,32.35-72.12,72.12c0,39.76,32.35,72.11,72.12,72.11
			c39.76,0,72.11-32.35,72.11-72.11C176.47,102.76,144.12,70.4,104.36,70.4z M169.82,142.52c0,36.1-29.37,65.46-65.46,65.46
			c-36.1,0-65.48-29.37-65.48-65.46c0-36.1,29.37-65.48,65.48-65.48C140.46,77.05,169.82,106.42,169.82,142.52z"/>
		<g>
			<path class="st0" d="M122.87,176.6c-13.33,13.33-34.93,13.33-48.26,0l48.26-48.26C136.2,141.67,136.2,163.27,122.87,176.6z"/>
			<path class="st0" d="M134.09,108.43l-48.26,48.26c-13.32-13.32-13.32-34.93,0.01-48.25C99.17,95.11,120.77,95.11,134.09,108.43z"
				/>
		</g>
	</g>
	<g>
		<path class="st0" d="M241.49,129.38c-0.32-3.27-1.51-5.71-3.56-7.32c-2.05-1.6-5.14-2.41-9.24-2.41c-7.57,0-11.36,2.6-11.36,7.8
			c0,1.86,0.79,3.42,2.36,4.67c1.57,1.25,4.09,2.3,7.56,3.13c4.11,0.96,7.67,1.86,10.69,2.7c3.02,0.84,5.78,1.8,8.28,2.89
			c1.41,0.58,2.74,1.3,3.99,2.17c1.25,0.87,2.31,1.94,3.18,3.22c0.87,1.28,1.56,2.82,2.07,4.62c0.51,1.8,0.77,3.98,0.77,6.55
			c0,3.08-0.64,5.81-1.92,8.18c-1.28,2.37-3.02,4.38-5.2,6.02c-2.18,1.64-4.75,2.89-7.7,3.75c-2.95,0.87-6.06,1.3-9.34,1.3
			c-9.31,0-16.3-1.8-20.99-5.39c-4.69-3.59-7.16-8.92-7.41-15.98h12.9c0.06,3.27,1.4,5.86,4,7.75c2.6,1.89,5.86,2.84,9.77,2.84
			c4.24,0,7.44-0.77,9.63-2.31c2.18-1.54,3.27-3.62,3.27-6.26c0-1.03-0.13-1.97-0.38-2.84c-0.26-0.87-0.75-1.65-1.49-2.36
			c-0.74-0.71-1.75-1.33-3.03-1.88c-1.28-0.54-2.95-1.04-5.01-1.49c-4.88-1.03-9.1-2.07-12.66-3.13c-3.56-1.06-6.5-2.37-8.81-3.95
			c-2.31-1.57-4.01-3.48-5.1-5.73c-1.09-2.25-1.64-5.1-1.64-8.57c0-2.63,0.48-5.1,1.44-7.41c0.96-2.31,2.44-4.32,4.43-6.02
			c1.99-1.7,4.44-3.05,7.36-4.04c2.92-0.99,6.37-1.49,10.35-1.49c3.85,0,7.32,0.5,10.4,1.49c3.08,1,5.73,2.41,7.94,4.24
			c2.21,1.83,3.93,4.04,5.15,6.64c1.22,2.6,1.89,5.47,2.02,8.62H241.49z"/>
		<path class="st0" d="M288.98,143.24h11.65v13.48c0,2.5-0.37,4.89-1.11,7.17c-0.74,2.28-1.89,4.3-3.47,6.06
			c-1.57,1.77-3.56,3.16-5.97,4.19s-5.28,1.54-8.62,1.54c-3.47,0-6.42-0.51-8.86-1.54c-2.44-1.03-4.45-2.41-6.02-4.14
			c-1.57-1.73-2.71-3.75-3.42-6.06c-0.71-2.31-1.06-4.75-1.06-7.32v-42.36h12.32v12.8h26.18v8.86h-26.18v19.45
			c0,3.02,0.56,5.34,1.68,6.98c1.12,1.64,2.97,2.45,5.53,2.45c2.5,0,4.35-0.8,5.54-2.41c1.19-1.6,1.78-3.88,1.78-6.84V143.24z"/>
		<path class="st0" d="M331.28,175.68c-3.85,0-7.28-0.61-10.3-1.83c-3.02-1.22-5.57-2.92-7.65-5.1c-2.09-2.18-3.68-4.81-4.76-7.89
			c-1.09-3.08-1.64-6.45-1.64-10.11c0-3.72,0.56-7.12,1.68-10.2c1.12-3.08,2.74-5.71,4.86-7.89c2.12-2.18,4.67-3.87,7.65-5.05
			c2.98-1.19,6.37-1.78,10.16-1.78c3.72,0,7.06,0.59,10.01,1.78c2.95,1.19,5.47,2.86,7.56,5.01c2.08,2.15,3.69,4.77,4.81,7.85
			c1.12,3.08,1.68,6.51,1.68,10.3c0,3.79-0.56,7.2-1.68,10.25c-1.12,3.05-2.73,5.66-4.81,7.85c-2.09,2.18-4.62,3.87-7.61,5.05
			C338.26,175.09,334.93,175.68,331.28,175.68z M331.28,165.19c7.64,0,11.46-4.81,11.46-14.44c0-9.56-3.82-14.34-11.46-14.34
			c-7.64,0-11.46,4.78-11.46,14.34C319.82,160.37,323.64,165.19,331.28,165.19z"/>
		<path class="st0" d="M362.21,174.43v-47.36h11.74v5.68c1.03-1.6,2.1-2.85,3.22-3.75c1.12-0.9,2.28-1.59,3.47-2.07
			c1.19-0.48,2.39-0.78,3.61-0.91c1.22-0.13,2.47-0.19,3.75-0.19h1.64v12.8c-1.15-0.19-2.31-0.29-3.47-0.29
			c-7.64,0-11.45,3.82-11.45,11.46v24.64H362.21z"/>
		<path class="st0" d="M404.32,154.02c0.19,3.59,1.24,6.45,3.13,8.57s4.38,3.18,7.46,3.18c2.05,0,3.87-0.46,5.44-1.4
			c1.57-0.93,2.58-2.23,3.03-3.9h12.9c-1.48,4.88-4.04,8.63-7.7,11.26c-3.66,2.63-8.02,3.95-13.09,3.95
			c-15.79,0-23.68-8.6-23.68-25.8c0-3.66,0.51-6.96,1.54-9.92c1.03-2.95,2.52-5.49,4.48-7.6c1.96-2.12,4.35-3.74,7.17-4.86
			c2.82-1.12,6.06-1.68,9.72-1.68c7.32,0,12.85,2.34,16.61,7.03c3.75,4.69,5.63,11.74,5.63,21.18H404.32z M424.05,146.13
			c-0.07-1.73-0.37-3.26-0.91-4.57c-0.55-1.31-1.27-2.41-2.17-3.27c-0.9-0.87-1.93-1.51-3.08-1.93c-1.15-0.42-2.34-0.63-3.56-0.63
			c-2.5,0-4.67,0.91-6.5,2.74c-1.83,1.83-2.87,4.38-3.13,7.65H424.05z"/>
		<path class="st0" d="M443.92,121.39v-11.65h12.51v11.65H443.92z M443.92,174.43v-47.36h12.51v47.36H443.92z"/>
		<path class="st0" d="M494.87,174.43v-28.69c0-3.66-0.61-6.13-1.83-7.41c-1.22-1.28-3.31-1.93-6.26-1.93
			c-6.48,0-9.72,3.63-9.72,10.88v27.15h-12.51v-47.36h11.94V134c1.48-2.7,3.43-4.73,5.87-6.11c2.44-1.38,5.58-2.07,9.43-2.07
			c2.25,0,4.33,0.34,6.26,1.01c1.93,0.67,3.58,1.68,4.96,3.03c1.38,1.35,2.47,3,3.27,4.96c0.8,1.96,1.2,4.22,1.2,6.79v32.83H494.87z
			"/>
		<path class="st0" d="M538.61,175.68c-3.85,0-7.28-0.61-10.3-1.83c-3.02-1.22-5.57-2.92-7.65-5.1c-2.09-2.18-3.68-4.81-4.76-7.89
			c-1.09-3.08-1.64-6.45-1.64-10.11c0-3.72,0.56-7.12,1.68-10.2c1.12-3.08,2.74-5.71,4.86-7.89c2.12-2.18,4.67-3.87,7.65-5.05
			c2.98-1.19,6.37-1.78,10.16-1.78c3.72,0,7.06,0.59,10.01,1.78c2.95,1.19,5.47,2.86,7.56,5.01c2.08,2.15,3.69,4.77,4.81,7.85
			c1.12,3.08,1.68,6.51,1.68,10.3c0,3.79-0.56,7.2-1.68,10.25c-1.12,3.05-2.73,5.66-4.81,7.85c-2.09,2.18-4.62,3.87-7.61,5.05
			C545.59,175.09,542.27,175.68,538.61,175.68z M538.61,165.19c7.64,0,11.46-4.81,11.46-14.44c0-9.56-3.82-14.34-11.46-14.34
			c-7.64,0-11.46,4.78-11.46,14.34C527.16,160.37,530.97,165.19,538.61,165.19z"/>
	</g>
</g>
</svg>
