<?xml version="1.0" encoding="utf-8"?>
<!-- Generator: Adobe Illustrator 24.2.1, SVG Export Plug-In . SVG Version: 6.00 Build 0)  -->
<svg version="1.1" id="Calque_1" xmlns="http://www.w3.org/2000/svg" xmlns:xlink="http://www.w3.org/1999/xlink" x="0px" y="0px"
	 viewBox="0 0 532.36 145.87" style="enable-background:new 0 0 532.36 145.87;" xml:space="preserve">
<style type="text/css">
	.st0{fill:#557FBF;}
</style>
<g>
	<g>
		<path class="st0" d="M73.29,0.89c-39.77,0-72.12,32.35-72.12,72.12c0,39.76,32.35,72.11,72.12,72.11
			c39.76,0,72.11-32.35,72.11-72.11S113.05,0.89,73.29,0.89z M138.75,73.01c0,36.1-29.37,65.46-65.46,65.46
			c-36.1,0-65.48-29.37-65.48-65.46c0-36.1,29.37-65.48,65.48-65.48C109.39,7.54,138.75,36.91,138.75,73.01z"/>
		<g>
			<path class="st0" d="M91.8,107.09c-13.33,13.33-34.93,13.33-48.26,0L91.8,58.83C105.13,72.16,105.13,93.76,91.8,107.09z"/>
			<path class="st0" d="M103.02,38.92L54.76,87.18c-13.32-13.32-13.32-34.93,0.01-48.25C68.1,25.6,89.7,25.6,103.02,38.92z"/>
		</g>
	</g>
	<g>
		<path class="st0" d="M210.42,59.87c-0.32-3.27-1.51-5.71-3.56-7.32c-2.05-1.6-5.14-2.41-9.24-2.41c-7.57,0-11.36,2.6-11.36,7.8
			c0,1.86,0.79,3.42,2.36,4.67s4.09,2.3,7.56,3.13c4.11,0.96,7.67,1.86,10.69,2.7s5.78,1.8,8.28,2.89c1.41,0.58,2.74,1.3,3.99,2.17
			s2.31,1.94,3.18,3.22s1.56,2.82,2.07,4.62c0.51,1.8,0.77,3.98,0.77,6.55c0,3.08-0.64,5.81-1.92,8.18
			c-1.28,2.37-3.02,4.38-5.2,6.02s-4.75,2.89-7.7,3.75c-2.95,0.87-6.06,1.3-9.34,1.3c-9.31,0-16.3-1.8-20.99-5.39
			s-7.16-8.92-7.41-15.98h12.9c0.06,3.27,1.4,5.86,4,7.75s5.86,2.84,9.77,2.84c4.24,0,7.44-0.77,9.63-2.31
			c2.18-1.54,3.27-3.62,3.27-6.26c0-1.03-0.13-1.97-0.38-2.84c-0.26-0.87-0.75-1.65-1.49-2.36s-1.75-1.33-3.03-1.88
			c-1.28-0.54-2.95-1.04-5.01-1.49c-4.88-1.03-9.1-2.07-12.66-3.13s-6.5-2.37-8.81-3.95c-2.31-1.57-4.01-3.48-5.1-5.73
			c-1.09-2.25-1.64-5.1-1.64-8.57c0-2.63,0.48-5.1,1.44-7.41s2.44-4.32,4.43-6.02c1.99-1.7,4.44-3.05,7.36-4.04
			s6.37-1.49,10.35-1.49c3.85,0,7.32,0.5,10.4,1.49c3.08,1,5.73,2.41,7.94,4.24c2.21,1.83,3.93,4.04,5.15,6.64s1.89,5.47,2.02,8.62
			L210.42,59.87L210.42,59.87z"/>
		<path class="st0" d="M257.91,73.73h11.65v13.48c0,2.5-0.37,4.89-1.11,7.17s-1.89,4.3-3.47,6.06c-1.57,1.77-3.56,3.16-5.97,4.19
			s-5.28,1.54-8.62,1.54c-3.47,0-6.42-0.51-8.86-1.54c-2.44-1.03-4.45-2.41-6.02-4.14c-1.57-1.73-2.71-3.75-3.42-6.06
			c-0.71-2.31-1.06-4.75-1.06-7.32V44.75h12.32v12.8h26.18v8.86h-26.18v19.45c0,3.02,0.56,5.34,1.68,6.98s2.97,2.45,5.53,2.45
			c2.5,0,4.35-0.8,5.54-2.41c1.19-1.6,1.78-3.88,1.78-6.84V73.73H257.91z"/>
		<path class="st0" d="M300.21,106.17c-3.85,0-7.28-0.61-10.3-1.83s-5.57-2.92-7.65-5.1c-2.09-2.18-3.68-4.81-4.76-7.89
			c-1.09-3.08-1.64-6.45-1.64-10.11c0-3.72,0.56-7.12,1.68-10.2s2.74-5.71,4.86-7.89s4.67-3.87,7.65-5.05
			c2.98-1.19,6.37-1.78,10.16-1.78c3.72,0,7.06,0.59,10.01,1.78s5.47,2.86,7.56,5.01c2.08,2.15,3.69,4.77,4.81,7.85
			s1.68,6.51,1.68,10.3c0,3.79-0.56,7.2-1.68,10.25s-2.73,5.66-4.81,7.85c-2.09,2.18-4.62,3.87-7.61,5.05
			C307.19,105.58,303.86,106.17,300.21,106.17z M300.21,95.68c7.64,0,11.46-4.81,11.46-14.44c0-9.56-3.82-14.34-11.46-14.34
			c-7.64,0-11.46,4.78-11.46,14.34C288.75,90.86,292.57,95.68,300.21,95.68z"/>
		<path class="st0" d="M331.14,104.92V57.56h11.74v5.68c1.03-1.6,2.1-2.85,3.22-3.75s2.28-1.59,3.47-2.07s2.39-0.78,3.61-0.91
			c1.22-0.13,2.47-0.19,3.75-0.19h1.64v12.8c-1.15-0.19-2.31-0.29-3.47-0.29c-7.64,0-11.45,3.82-11.45,11.46v24.64L331.14,104.92
			L331.14,104.92z"/>
		<path class="st0" d="M373.25,84.51c0.19,3.59,1.24,6.45,3.13,8.57s4.38,3.18,7.46,3.18c2.05,0,3.87-0.46,5.44-1.4
			c1.57-0.93,2.58-2.23,3.03-3.9h12.9c-1.48,4.88-4.04,8.63-7.7,11.26c-3.66,2.63-8.02,3.95-13.09,3.95
			c-15.79,0-23.68-8.6-23.68-25.8c0-3.66,0.51-6.96,1.54-9.92c1.03-2.95,2.52-5.49,4.48-7.6c1.96-2.12,4.35-3.74,7.17-4.86
			c2.82-1.12,6.06-1.68,9.72-1.68c7.32,0,12.85,2.34,16.61,7.03c3.75,4.69,5.63,11.74,5.63,21.18L373.25,84.51L373.25,84.51z
			 M392.98,76.62c-0.07-1.73-0.37-3.26-0.91-4.57c-0.55-1.31-1.27-2.41-2.17-3.27c-0.9-0.87-1.93-1.51-3.08-1.93
			s-2.34-0.63-3.56-0.63c-2.5,0-4.67,0.91-6.5,2.74s-2.87,4.38-3.13,7.65h19.35V76.62z"/>
		<path class="st0" d="M412.85,51.88V40.23h12.51v11.65H412.85z M412.85,104.92V57.56h12.51v47.36H412.85z"/>
		<path class="st0" d="M463.8,104.92V76.23c0-3.66-0.61-6.13-1.83-7.41s-3.31-1.93-6.26-1.93c-6.48,0-9.72,3.63-9.72,10.88v27.15
			h-12.51V57.56h11.94v6.93c1.48-2.7,3.43-4.73,5.87-6.11c2.44-1.38,5.58-2.07,9.43-2.07c2.25,0,4.33,0.34,6.26,1.01
			c1.93,0.67,3.58,1.68,4.96,3.03s2.47,3,3.27,4.96s1.2,4.22,1.2,6.79v32.83H463.8V104.92z"/>
		<path class="st0" d="M507.54,106.17c-3.85,0-7.28-0.61-10.3-1.83c-3.02-1.22-5.57-2.92-7.65-5.1c-2.09-2.18-3.68-4.81-4.76-7.89
			c-1.09-3.08-1.64-6.45-1.64-10.11c0-3.72,0.56-7.12,1.68-10.2s2.74-5.71,4.86-7.89s4.67-3.87,7.65-5.05
			c2.98-1.19,6.37-1.78,10.16-1.78c3.72,0,7.06,0.59,10.01,1.78s5.47,2.86,7.56,5.01c2.08,2.15,3.69,4.77,4.81,7.85
			s1.68,6.51,1.68,10.3c0,3.79-0.56,7.2-1.68,10.25s-2.73,5.66-4.81,7.85c-2.09,2.18-4.62,3.87-7.61,5.05
			C514.52,105.58,511.2,106.17,507.54,106.17z M507.54,95.68c7.64,0,11.46-4.81,11.46-14.44c0-9.56-3.82-14.34-11.46-14.34
			c-7.64,0-11.46,4.78-11.46,14.34C496.09,90.86,499.9,95.68,507.54,95.68z"/>
	</g>
</g>
</svg>
